<svg width="140" height="34" viewBox="0 0 140 34" fill="none" xmlns="http://www.w3.org/2000/svg">
<path d="M136.163 1.04794C134.497 2.84695 134.298 3.44662 135.197 4.2795C135.597 4.64596 136.097 4.97911 136.297 4.97911C136.496 4.97911 136.83 5.21232 137.063 5.47884C137.596 6.11182 137.796 5.94525 139.028 4.11292C140.294 2.2806 140.294 1.8475 139.195 0.814734C137.996 -0.284663 137.396 -0.218032 136.163 1.04794Z" fill="#F8F6FA"/>
<path d="M21.7927 1.21442C21.5262 1.31436 21.0265 1.6142 20.7266 1.91403C20.1603 2.38044 20.127 3.37989 20.127 13.7742C20.127 26.5005 20.1603 26.6338 22.2591 26.6338C24.1914 26.6338 24.3913 26.1007 24.5245 19.9042C24.6245 13.6742 24.8244 13.1412 27.2564 11.8752C28.7889 11.0757 30.2214 11.3755 31.2542 12.7414C31.8872 13.6076 31.9538 14.2739 32.1204 19.8375C32.2869 26.5672 32.3203 26.6338 34.3525 26.6338C36.1848 26.6338 36.4513 25.6343 36.4513 18.7381C36.4513 13.1412 36.3847 12.7081 35.6184 11.0424C34.9521 9.57649 34.5524 9.21003 33.2864 8.64367C31.1542 7.74416 29.122 7.77748 27.1231 8.81025C26.2236 9.24334 25.424 9.77638 25.2908 9.97627C24.6911 10.9757 24.4579 9.94296 24.4579 6.14504V2.01398L23.4585 1.48094C22.9254 1.21442 22.459 0.981211 22.3924 1.01453C22.3257 1.01453 22.0592 1.11447 21.7927 1.21442Z" fill="#F8F6FA"/>
<path d="M133.398 8.51041V10.7092L132.399 9.87633C130.8 8.54372 128.668 7.84411 126.602 8.07731C122.205 8.51041 119.806 11.5754 119.773 16.8392C119.706 22.7692 122.671 26.6338 127.302 26.6338C129.034 26.6338 129.534 26.4672 131.266 25.3345L133.232 24.0352L133.465 24.8681C133.832 26.1674 134.398 26.6338 135.597 26.6338C137.596 26.6338 137.729 25.9675 137.729 15.4733V6.31162H135.564H133.398V8.51041ZM130.733 12.0418C132.332 13.1412 133.065 14.7403 133.065 17.2056C133.065 19.5377 132.799 20.4372 131.699 21.7032C130 23.6354 127.568 23.7021 125.836 21.8697C124.47 20.4372 123.937 18.6715 124.203 16.3728C124.47 14.1407 125.37 12.5748 126.835 11.8419C128.301 11.109 129.434 11.1756 130.733 12.0418Z" fill="#F8F6FA"/>
<path d="M5.40221 8.57688C1.97076 9.80954 0.0384885 13.0078 0.00517349 17.472C-0.0281415 19.904 0.0718035 20.3038 1.13788 22.3027C2.20397 24.2349 2.57043 24.5681 4.46939 25.5675C6.46829 26.6003 6.83476 26.6669 9.30007 26.567C12.465 26.4337 14.6638 25.4676 16.163 23.602C17.5955 21.7696 17.7288 20.5703 16.6294 19.6708C15.43 18.7713 14.897 18.7713 14.0308 19.8374C11.1657 23.2022 11.299 23.1356 9.20012 23.1356C7.46774 23.1356 7.13459 23.0356 6.20177 22.0695C4.46939 20.3704 4.06961 16.1061 5.36889 13.5741C5.8353 12.5747 8.00078 11.3087 9.13349 11.3087C10.2329 11.3087 11.6321 12.1749 13.2646 13.874C14.7304 15.4398 14.7971 15.4731 15.6632 14.9734C17.6288 13.874 17.5622 12.5747 15.4967 10.4092C13.2979 8.11047 8.9336 7.34422 5.40221 8.57688Z" fill="#F8F6FA"/>
<path d="M44.7798 8.51041C40.4821 10.0096 38.5499 13.8075 39.2495 19.4377C39.7825 23.6688 43.5138 26.6338 48.2779 26.6338C50.2101 26.6338 50.9764 26.4672 52.309 25.7676C54.4745 24.6349 55.0075 24.1352 56.1402 22.1363C57.0064 20.6371 57.1063 20.1707 57.1063 17.3389C57.1063 14.4738 57.0397 14.074 56.1069 12.4749C55.5405 11.5088 54.6077 10.3427 54.008 9.87633C51.6094 8.044 47.7781 7.47764 44.7798 8.51041ZM50.51 12.1417C51.4761 12.7747 51.8759 13.3744 52.2757 14.707C52.8753 16.7725 52.9087 17.5055 52.4089 19.571C51.9758 21.3367 51.3762 22.1363 50.0436 22.8359C47.7781 24.0019 45.1129 22.8692 44.0802 20.3039C41.8481 14.7403 46.2123 9.21003 50.51 12.1417Z" fill="#F8F6FA"/>
<path d="M60.4387 8.87701C59.7724 9.7432 59.7391 10.0097 59.8391 21.0037C59.939 31.4979 59.9723 32.2642 60.572 32.9305C61.4049 33.8633 62.4709 33.83 63.4038 32.8305C64.1034 32.0643 64.17 31.7311 64.1367 28.1997C64.1034 25.901 64.2366 24.2686 64.4365 24.1353C64.6031 24.0354 64.7697 24.0687 64.7697 24.2352C64.7697 24.3685 65.4027 24.9349 66.2022 25.4679C68.0346 26.7006 71.0662 27.0004 72.9319 26.1009C74.5976 25.3013 76.6965 23.1025 77.1296 21.6367C77.7292 19.5711 77.8625 16.4062 77.4294 14.274C76.4299 9.64326 72.1323 7.01137 67.868 8.44391C66.9352 8.74375 65.8691 9.37673 65.436 9.80983C64.6031 10.7093 64.1034 10.6427 64.1034 9.64326C64.1034 8.87701 62.904 7.9775 61.9046 7.9775C61.4715 7.9775 60.8385 8.37728 60.4387 8.87701ZM70.7331 11.842C72.0657 12.6416 73.1318 14.5072 73.3316 16.4728C73.7647 20.7038 70.7331 24.1686 67.6015 22.9693C66.5021 22.5695 65.2028 21.2369 64.7364 20.0375C64.2366 18.7049 64.4032 15.2402 65.0362 13.9742C66.1689 11.7088 68.8008 10.7093 70.7331 11.842Z" fill="#F8F6FA"/>
<path d="M81.2948 8.51061C80.8283 8.9437 80.7617 10.5095 80.7617 20.4041C80.7617 26.6673 80.8617 32.131 80.9616 32.5641C81.1948 33.3636 82.3275 33.7967 83.3603 33.4969C84.4264 33.1304 84.7595 31.7978 84.7595 27.5668V23.5024L85.6923 24.3686C87.6912 26.2342 88.6241 26.634 90.6563 26.634C92.2887 26.634 92.9217 26.4341 94.4209 25.5346C95.9867 24.6351 96.4198 24.1354 97.3859 22.2364C98.3854 20.2375 98.5186 19.6711 98.5186 17.3724C98.5186 15.2402 98.3521 14.3741 97.5858 12.7416C96.4531 10.2097 95.4203 9.17691 93.1549 8.47729C90.3231 7.54447 88.1577 8.0442 85.8589 10.1097L84.7595 11.1092V10.2097C84.7595 8.41066 82.4941 7.31127 81.2948 8.51061ZM91.8223 12.1419C93.3881 13.208 93.8878 14.8738 93.688 18.2386C93.5214 20.4374 93.4214 20.7705 92.422 21.8033C90.9894 23.3025 89.5236 23.6023 87.8578 22.7361C84.4264 21.0037 84.1265 14.3407 87.3914 12.1086C88.9239 11.0759 90.2898 11.0759 91.8223 12.1419Z" fill="#F8F6FA"/>
<path d="M105.948 8.51047C104.049 9.21008 102.55 10.4427 101.517 12.2418C100.651 13.6743 100.584 14.0741 100.584 17.3056C100.584 21.0036 100.717 21.47 102.483 23.6688C104.115 25.701 105.814 26.434 109.246 26.5672C112.011 26.6672 112.411 26.6005 114.077 25.7343C116.708 24.3684 118.174 21.8698 117.008 20.7038C116.342 20.0375 115.709 20.2374 113.843 21.7699C110.678 24.4017 107.28 24.2019 105.848 21.3034C105.415 20.5039 105.082 19.4711 105.082 19.0713C105.082 18.3051 105.082 18.3051 110.212 18.3051C115.176 18.3051 116.942 18.0386 117.475 17.2057C118.341 15.8398 117.308 12.1751 115.509 10.2762C113.51 8.17732 109.079 7.34444 105.948 8.51047ZM110.845 11.3422C112.378 12.1751 113.41 13.7742 113.41 15.3401C113.41 15.9397 113.144 15.973 109.246 15.973C104.582 15.973 104.548 15.973 105.581 13.5077C106.447 11.4422 109.013 10.3761 110.845 11.3422Z" fill="#F8F6FA"/>
</svg>
