<svg width="140" height="39" viewBox="0 0 140 39" fill="none" xmlns="http://www.w3.org/2000/svg">
<path d="M0 4.06694V7.26196H3.77593H7.55187V4.06694V0.871922H3.77593H0V4.06694Z" fill="#F8F6FA"/>
<path d="M15.1016 19.7512V38.6309H18.8775H22.6534V19.7512V0.871525H18.8775H15.1016V19.7512Z" fill="#F8F6FA"/>
<path d="M29.7417 15.801C29.6836 24.0499 29.7998 32.5313 29.974 34.6807L30.3226 38.6309H34.9118H39.5591L38.6877 37.0043C38.0487 35.7844 37.8164 31.6599 37.6421 18.2989L37.4678 1.16198L33.6338 0.987709L29.7417 0.813435V15.801Z" fill="#F8F6FA"/>
<path d="M85.9746 4.06694V7.26196H89.7505H93.5265V4.06694V0.871922H89.7505H85.9746V4.06694Z" fill="#F8F6FA"/>
<path d="M63.3789 11.2701C62.3333 11.5606 60.5906 12.6062 59.603 13.5938C57.9764 15.2784 57.8022 15.7432 57.8022 19.1125C57.8022 22.2494 58.0345 23.1208 59.1383 24.2826C60.5325 25.793 64.0179 27.1291 68.2586 27.8843C73.2545 28.6975 74.881 31.6021 71.1632 33.1125C68.491 34.2743 63.7275 33.2867 61.9847 31.3116C61.2296 30.4403 60.1258 29.9174 59.1383 29.9174C57.5698 29.9174 57.5117 29.9755 57.5117 33.0544V36.1332L60.4744 37.4112C64.8893 39.2121 73.1964 39.154 76.2752 37.295C80.5159 34.739 81.852 30.4984 79.7607 26.1996C78.715 23.876 75.3457 22.1913 70.6984 21.5523C64.9474 20.6809 62.2752 18.5896 65.1217 17.0793C67.7358 15.7432 72.6155 16.7307 72.6155 18.5896C72.6155 19.2867 73.4868 19.461 76.3914 19.461C78.4827 19.461 80.1673 19.3448 80.1673 19.1706C80.1673 19.0544 79.7607 17.8926 79.2379 16.6145C77.7856 13.0129 74.7067 11.2121 69.5366 10.9797C67.2711 10.8635 64.4827 11.0378 63.3789 11.2701Z" fill="#F8F6FA"/>
<path d="M126.871 11.4441C122.863 13.884 123.153 13.7678 123.153 12.4898C123.153 11.4441 122.805 11.328 119.377 11.328H115.602V24.9794V38.6309H119.377H123.153V29.3943C123.153 20.2159 123.153 20.2159 124.664 18.6475C127.22 16.1495 130.647 16.8466 131.809 20.0997C132.158 21.1454 132.448 25.7346 132.448 30.2657V38.6309H136.224H140V28.4649C140 17.0209 139.477 14.7553 136.34 12.4317C134.133 10.8051 128.788 10.2823 126.871 11.4441Z" fill="#F8F6FA"/>
<path d="M0 24.9787V38.6301H3.77593H7.55187V24.9787V11.3272H3.77593H0V24.9787Z" fill="#F8F6FA"/>
<path d="M85.9746 24.9794V38.6309H91.0286H96.0244L94.9207 37.4109C93.9331 36.3072 93.8169 35.0292 93.6427 25.386C93.4684 15.2201 93.5265 14.523 94.6883 12.9545L95.9082 11.328H90.9124H85.9746V24.9794Z" fill="#F8F6FA"/>
<path d="M44.2661 23.7595C44.4403 32.7056 44.5565 33.9836 45.5441 35.0873C46.9964 36.6558 48.2744 36.6558 49.8428 34.9711C51.0628 33.6931 51.1208 33.1122 51.1208 23.6433V13.6516H47.5773H44.0918L44.2661 23.7595Z" fill="#F8F6FA"/>
<path d="M101.602 16.3821C101.021 17.0792 100.789 19.2285 100.789 24.4567C100.789 30.6144 100.963 31.7182 101.893 32.7638C103.229 34.2742 105.611 34.3323 106.656 32.9381C107.702 31.602 107.818 17.1372 106.772 16.0916C105.727 15.046 102.532 15.2202 101.602 16.3821Z" fill="#F8F6FA"/>
</svg>
