<svg width="140" height="43" viewBox="0 0 140 43" fill="none" xmlns="http://www.w3.org/2000/svg">
<path d="M55.9313 1.08066C54.3839 2.57646 54.2292 3.76279 55.4155 5.41334C56.3955 6.85757 59.2324 6.96073 60.4187 5.61966C61.4503 4.48491 61.5535 1.75119 60.625 0.977497C60.3156 0.668019 59.3871 0.306962 58.6134 0.100644C57.5303 -0.157254 56.9113 0.0490642 55.9313 1.08066Z" fill="#F8F6FA"/>
<path d="M0.174081 1.02889C0.0193423 1.38995 -0.0322372 7.94056 0.0193423 15.5743L0.174081 29.5008L2.6499 29.6556L5.07414 29.8103V15.1101V0.358358H2.75306C1.30883 0.358358 0.27724 0.616257 0.174081 1.02889Z" fill="#F8F6FA"/>
<path d="M119.426 0.719727C119.219 0.874464 119.064 7.52823 119.064 15.4199V29.759H121.592H124.119L124.274 23.0021C124.48 16.3483 124.48 16.2452 125.925 15.0073C127.73 13.4599 130.773 13.3567 132.527 14.7494C133.713 15.6778 133.765 16.0904 133.919 22.7442L134.126 29.759H136.705H139.284L139.077 22.1253C138.974 15.6778 138.768 14.2852 137.891 12.7893C135.209 8.19877 130.67 7.42507 124.635 10.5714C124.377 10.6746 124.222 8.40508 124.222 5.56821V0.358669H122.004C120.767 0.358669 119.58 0.513407 119.426 0.719727Z" fill="#F8F6FA"/>
<path d="M65.6271 3.71134C65.4724 4.12398 65.4208 5.51663 65.5239 6.80612C65.6787 9.02404 65.6271 9.1272 64.286 9.1272C62.945 9.1272 62.8418 9.28194 62.8418 11.4483C62.8418 13.563 62.945 13.7694 64.1313 13.7694H65.4208V21.7642V29.759H67.9998H70.5787V21.7642V13.7694H72.1777C73.6735 13.7694 73.7251 13.7178 73.5704 11.5514C73.4156 9.59142 73.2609 9.3851 72.023 9.23036C70.6303 9.07562 70.5787 8.97246 70.5787 5.98084V2.93765H68.2577C66.6587 2.93765 65.8334 3.19555 65.6271 3.71134Z" fill="#F8F6FA"/>
<path d="M139.025 8.66269C139.386 9.02375 139.799 9.17849 139.954 9.02375C140.108 8.86901 139.85 8.55953 139.335 8.40479C138.612 8.09531 138.561 8.14689 139.025 8.66269Z" fill="#F8F6FA"/>
<path d="M14.4612 9.17883C11.8822 9.95253 8.47799 13.6147 7.65272 16.5031C6.31165 21.4548 8.94221 27.1801 13.5328 29.2949C18.3297 31.4612 24.8803 29.7075 27.6656 25.478C28.8519 23.6727 29.0582 22.8474 29.0582 19.4432C29.0582 15.9358 28.9035 15.2652 27.5624 13.3568C24.8803 9.43673 19.516 7.73461 14.4612 9.17883ZM21.2181 14.3368C24.8287 15.9873 25.1382 22.1253 21.7339 24.3432C20.0834 25.4264 16.7307 25.4264 15.0802 24.3432C10.438 21.3516 12.5528 13.7694 18.0202 13.7694C19.1034 13.7694 20.5476 14.0273 21.2181 14.3368Z" fill="#F8F6FA"/>
<path d="M37.8269 9.59138C35.4027 10.7261 32.7205 13.4083 31.9468 15.4714C30.8637 18.2567 31.2763 22.0736 32.9268 24.9105C36.589 31.358 46.1312 32.1317 50.825 26.4579C53.4555 23.26 54.1261 19.6494 52.8366 15.9357C52.2692 14.3367 52.2176 13.7177 52.6818 13.3567C53.2492 12.8409 53.5071 9.90085 52.9913 9.43664C52.8881 9.33348 49.8965 9.12716 46.3375 8.92084C40.6638 8.66294 39.6322 8.71452 37.8269 9.59138ZM45.9765 14.8525C47.8849 16.2967 48.7618 19.3915 47.8849 21.5063C46.9049 23.8789 45.048 25.1168 42.3659 25.1168C40.4059 25.1168 39.7869 24.8589 38.2911 23.3631C36.8469 21.9189 36.5374 21.1968 36.5374 19.4431C36.5374 17.6894 36.8469 16.9673 38.2911 15.523C39.7869 14.0272 40.4059 13.7693 42.3659 13.7693C43.9133 13.7693 45.0996 14.1304 45.9765 14.8525Z" fill="#F8F6FA"/>
<path d="M80.3814 9.74632C75.636 12.1706 73.4181 17.1738 74.7076 22.5896C76.5645 30.1718 86.7772 32.854 93.4826 27.4897C94.4626 26.6644 94.4626 26.6128 92.812 24.9107L91.1099 23.157L89.3046 24.3949C86.5709 26.2002 83.373 26.097 81.3614 24.137C80.5361 23.3117 79.8656 22.3833 79.8656 22.0738C79.8656 21.7128 82.4961 21.5065 87.912 21.5065H96.01L95.6489 18.8759C94.5657 10.6747 87.2414 6.29048 80.3814 9.74632ZM88.5825 14.5948C91.3678 16.9159 90.8004 17.3801 85.0235 17.3801C79.2466 17.3801 78.6792 16.9159 81.4645 14.5948C83.6309 12.7895 86.4162 12.7895 88.5825 14.5948Z" fill="#F8F6FA"/>
<path d="M103.849 9.591C93.2239 14.4911 96.7313 30.2744 108.491 30.2744C111.277 30.2744 114.681 28.9849 116.074 27.386C116.899 26.4575 116.847 26.3028 115.403 24.7038L113.856 23.0017L112.05 24.0849C107.46 26.9733 102.147 23.827 102.766 18.669C103.282 14.4395 108.646 12.17 111.999 14.8005C113.701 16.1416 113.959 16.09 115.713 14.2847C117.157 12.7889 117.157 12.7374 116.177 11.6542C113.649 8.76573 107.769 7.78571 103.849 9.591Z" fill="#F8F6FA"/>
<path d="M55.623 19.4428V29.8103L58.0989 29.6556L60.5231 29.5008V19.4428V9.38478L58.0989 9.23005L55.623 9.07531V19.4428Z" fill="#F8F6FA"/>
<path d="M31.3809 32.4411C31.4324 34.4527 33.2377 37.7538 35.2493 39.4043C41.7999 44.8202 51.4453 41.3644 53.3022 32.9569L53.6632 31.3063H51.0843C48.6084 31.3063 48.5569 31.3579 47.7832 33.3179C45.8231 38.3212 37.9315 37.9601 36.7967 32.8021C36.4872 31.4095 36.2809 31.3063 33.9083 31.3063C31.6388 31.3063 31.3809 31.4095 31.3809 32.4411Z" fill="#F8F6FA"/>
</svg>
