<svg width="17" height="30" viewBox="0 0 17 30" fill="none" xmlns="http://www.w3.org/2000/svg">
<path d="M4.59704 6.26887C2.58164 9.7752 0.937496 12.651 0.949282 12.6628C0.961068 12.6687 2.60521 11.8967 4.61472 10.9479L8.26248 9.21536L11.8336 10.9008C13.796 11.8318 15.4578 12.6156 15.5167 12.651C15.6169 12.6981 15.611 12.6745 15.4814 12.4506C15.1337 11.8495 8.38034 0.0989151 8.32141 0.00462723C8.27426 -0.0837679 7.60246 1.04179 4.59704 6.26887Z" fill="url(#paint0_linear_48_118)"/>
<path d="M5.17318 12.6395C3.476 13.4469 1.95561 14.1658 1.80239 14.2365L1.51953 14.3721L4.86675 15.9573C6.70536 16.8294 8.24343 17.5425 8.27289 17.5425C8.37897 17.5366 14.873 14.431 14.8907 14.3779C14.9025 14.3485 14.2248 14.0008 13.388 13.606C12.5512 13.2111 11.0544 12.504 10.0644 12.0325L8.26111 11.1781L5.17318 12.6395Z" fill="url(#paint1_linear_48_118)"/>
<path d="M4.10741 22.8282C6.36442 26.7824 8.23839 30.0059 8.26197 30C8.315 29.9823 16.5121 15.6918 16.4827 15.6683C16.4709 15.6624 14.6382 16.5286 12.3988 17.5894C10.1654 18.656 8.30322 19.5282 8.26197 19.5282C8.22071 19.5282 6.48228 18.7149 4.40206 17.7249C2.31594 16.729 0.477332 15.8568 0.306435 15.7802L0 15.6447L4.10741 22.8282Z" fill="url(#paint2_linear_48_118)"/>
<defs>
<linearGradient id="paint0_linear_48_118" x1="8.26758" y1="12.6711" x2="8.26758" y2="-6.86646e-05" gradientUnits="userSpaceOnUse">
<stop stop-color="#07C6BA"/>
<stop offset="1" stop-color="#02FF93"/>
</linearGradient>
<linearGradient id="paint1_linear_48_118" x1="8.2052" y1="17.5425" x2="8.2052" y2="11.1781" gradientUnits="userSpaceOnUse">
<stop stop-color="#07C6BA"/>
<stop offset="1" stop-color="#02FF93"/>
</linearGradient>
<linearGradient id="paint2_linear_48_118" x1="8.24138" y1="30" x2="8.24138" y2="15.6447" gradientUnits="userSpaceOnUse">
<stop stop-color="#07C6BA"/>
<stop offset="1" stop-color="#05E887"/>
</linearGradient>
</defs>
</svg>
