<svg width="140" height="46" viewBox="0 0 140 46" fill="none" xmlns="http://www.w3.org/2000/svg">
<path d="M116.549 0.136402C113.23 0.692352 110.248 2.86562 108.782 5.78015C107.957 7.43115 107.772 8.32404 107.67 11.3397L107.569 14.2036L105.598 14.2879C103.964 14.3553 103.56 14.4227 103.155 14.7259C102.414 15.265 102.06 16.0905 102.161 17.0171C102.347 18.7186 103.088 19.1904 105.716 19.3251L107.569 19.4262L107.654 31.2191C107.721 40.1986 107.788 43.0963 107.94 43.3827C108.344 44.0734 109.136 44.4946 110.113 44.5114C111.09 44.5114 111.629 44.2418 112.27 43.3658C112.623 42.9109 112.623 42.7256 112.674 31.118L112.725 19.342H119.868H127.011L127.061 28.0519C127.129 37.6715 127.129 37.5704 128.257 39.8616C128.931 41.2262 130.852 43.2984 132.183 44.1071C133.834 45.101 135.114 45.438 137.17 45.4548C138.854 45.4548 138.989 45.4211 139.478 45.0168C139.983 44.5956 140 44.5451 140 43.1468C140 41.7822 139.983 41.698 139.494 41.2431C138.989 40.7714 138.366 40.5692 137.372 40.5692C135.973 40.5692 133.901 39.2888 133.008 37.8737C132.115 36.4585 132.082 36.0879 132.082 27.3948V19.342H134.491C137.321 19.342 137.945 19.2072 138.635 18.3986C139.09 17.8931 139.157 17.691 139.157 16.8486C139.157 16.1747 139.056 15.7199 138.821 15.3324C138.281 14.4395 137.675 14.2879 134.693 14.2879H132.082V8.81261C132.082 4.51662 132.031 3.20255 131.846 2.76453C131.121 1.04614 128.426 0.911362 127.432 2.56237C127.146 3.03408 127.112 3.55634 127.061 8.67783L127.011 14.2879H119.851H112.708V11.8788C112.708 9.58757 112.725 9.43594 113.196 8.44197C114.14 6.45403 115.808 5.29158 118.132 5.03888C120.171 4.80302 120.912 4.0449 120.761 2.27597C120.609 0.355412 119.261 -0.31847 116.549 0.136402Z" fill="#F8F6FA"/>
<path d="M39.1708 18.9374C36.509 19.527 34.1336 20.8916 32.2299 22.9301C25.6764 29.9385 28.5235 41.664 37.5367 44.8312C38.8844 45.3029 39.2214 45.3535 41.6473 45.4209C44.1238 45.4883 44.4102 45.4546 45.8591 45.0502C48.7062 44.2247 51.5534 42.2199 51.7892 40.8722C51.9577 39.9287 51.6376 39.0022 50.9637 38.3957C50.4415 37.9408 50.2393 37.8734 49.397 37.8734C48.403 37.8734 48.3019 37.924 46.752 39.0359C43.4668 41.3776 39.154 40.9901 36.2226 38.0419C33.5945 35.4137 32.9543 31.8253 34.5547 28.5065C35.9025 25.6593 38.9518 23.7219 42.0348 23.7219C44.0228 23.7219 45.3874 24.261 47.847 25.9794C48.3861 26.3669 48.7399 26.4848 49.3464 26.4848C50.9637 26.4848 51.9745 25.3898 51.8398 23.7219C51.7724 22.8459 51.7218 22.7617 50.7279 21.8519C49.5149 20.7232 47.5943 19.6786 45.8254 19.1732C44.1238 18.6847 40.8387 18.5667 39.1708 18.9374Z" fill="#F8F6FA"/>
<path d="M65.2807 18.9206C64.7247 19.0554 63.9329 19.2744 63.5117 19.4261C62.6357 19.7293 60.7151 20.7907 60.5467 21.0434C60.4961 21.1444 60.2266 20.9591 59.9233 20.6053C58.4408 18.9206 55.779 19.7967 55.5094 22.071C55.4589 22.5596 55.4252 27.4452 55.4589 32.9037C55.5094 42.1695 55.5263 42.8939 55.8127 43.3151C56.2844 44.0395 57.0762 44.4438 58.0028 44.4438C58.9967 44.4438 59.7212 44.0901 60.1423 43.3825C60.4624 42.8771 60.4793 42.4896 60.4793 36.7448C60.4793 32.9542 60.5467 30.3092 60.6646 29.7533C60.9678 28.3044 61.7597 26.8724 62.8547 25.8279C64.9437 23.8231 67.5887 23.2335 70.3179 24.1264C71.0424 24.3622 71.8173 24.5644 72.0532 24.5644C72.6428 24.5644 73.4852 24.1601 73.9569 23.6378C74.3275 23.2503 74.3781 23.0313 74.3781 22.0373C74.3781 20.9928 74.3275 20.8244 73.8895 20.3695C72.5586 18.988 68.2626 18.2636 65.2807 18.9206Z" fill="#F8F6FA"/>
<path d="M85.7522 18.9209C78.4069 20.4034 73.7571 27.5128 75.2902 34.9255C76.301 39.8448 80.1084 43.905 84.8424 45.118C86.645 45.5897 90.2335 45.5897 92.0192 45.1348C93.3838 44.781 94.9506 44.0566 96.1805 43.2142C96.7701 42.8099 96.9554 42.7594 97.006 42.9447C97.0565 43.0795 97.3766 43.4669 97.7135 43.8039C98.3032 44.3935 98.4211 44.4441 99.314 44.4441C100.493 44.4441 101.251 44.0229 101.673 43.1637C101.908 42.6414 101.942 41.8833 101.892 36.1385C101.824 29.2481 101.807 29.0965 100.864 26.7716C99.6341 23.7054 96.3489 20.5887 93.2322 19.4937C90.941 18.685 88.0265 18.466 85.7522 18.9209ZM90.84 24.0592C95.1191 25.3733 97.7472 29.9557 96.6185 34.1506C95.6582 37.7895 92.154 40.5693 88.5319 40.5693C83.9832 40.5693 80.0242 36.6439 80.0242 32.1626C80.041 26.5863 85.5837 22.425 90.84 24.0592Z" fill="#F8F6FA"/>
<path d="M1.43199 19.9321C1.06136 20.0669 0.589645 20.387 0.387481 20.6397L0 21.1114V28.2714C0 36.3074 0.016847 36.459 1.17929 38.8008C2.71237 41.9175 5.71113 44.3603 9.01314 45.2026C10.3609 45.5396 14.0841 45.5396 15.415 45.2026C16.5606 44.8994 18.2116 44.175 19.1045 43.5516L19.711 43.1473L20.368 43.7875C20.9745 44.394 21.0924 44.4445 21.9853 44.4445C23.1478 44.4445 23.9227 44.0233 24.3271 43.1978C24.5629 42.6924 24.5966 41.412 24.5966 32.1125C24.5966 22.4592 24.5798 21.5663 24.2934 21.0272C23.9059 20.2691 23.0635 19.7805 22.0864 19.7805C21.0588 19.7805 20.3006 20.2522 19.8795 21.1114C19.5594 21.7684 19.5425 22.1728 19.5425 28.0692C19.5425 33.9825 19.5257 34.4037 19.1887 35.3808C18.4812 37.5204 17.2008 38.9187 15.0612 39.9295C13.983 40.4518 13.764 40.4855 12.1972 40.4855C10.5799 40.4855 10.462 40.4518 9.21531 39.8453C7.53061 39.0198 6.43555 37.9247 5.61005 36.24L4.96986 34.9428L4.88563 28.1198C4.80139 21.7516 4.78455 21.2462 4.4813 20.8082C3.87481 19.8984 2.5439 19.5278 1.43199 19.9321Z" fill="#F8F6FA"/>
</svg>
